<svg width="25" height="24" viewBox="0 0 25 24" fill="none" xmlns="http://www.w3.org/2000/svg">
<path d="M8.9 17L12.5 13.4L16.1 17L17.5 15.6L13.9 12L17.5 8.4L16.1 7L12.5 10.6L8.9 7L7.5 8.4L11.1 12L7.5 15.6L8.9 17ZM12.5 22C11.1167 22 9.81667 21.7375 8.6 21.2125C7.38333 20.6875 6.325 19.975 5.425 19.075C4.525 18.175 3.8125 17.1167 3.2875 15.9C2.7625 14.6833 2.5 13.3833 2.5 12C2.5 10.6167 2.7625 9.31667 3.2875 8.1C3.8125 6.88333 4.525 5.825 5.425 4.925C6.325 4.025 7.38333 3.3125 8.6 2.7875C9.81667 2.2625 11.1167 2 12.5 2C13.8833 2 15.1833 2.2625 16.4 2.7875C17.6167 3.3125 18.675 4.025 19.575 4.925C20.475 5.825 21.1875 6.88333 21.7125 8.1C22.2375 9.31667 22.5 10.6167 22.5 12C22.5 13.3833 22.2375 14.6833 21.7125 15.9C21.1875 17.1167 20.475 18.175 19.575 19.075C18.675 19.975 17.6167 20.6875 16.4 21.2125C15.1833 21.7375 13.8833 22 12.5 22ZM12.5 20C14.7333 20 16.625 19.225 18.175 17.675C19.725 16.125 20.5 14.2333 20.5 12C20.5 9.76667 19.725 7.875 18.175 6.325C16.625 4.775 14.7333 4 12.5 4C10.2667 4 8.375 4.775 6.825 6.325C5.275 7.875 4.5 9.76667 4.5 12C4.5 14.2333 5.275 16.125 6.825 17.675C8.375 19.225 10.2667 20 12.5 20Z" fill="#49454F"/>
</svg>
