<svg width="940" height="300" viewBox="0 0 940 300" fill="none" xmlns="http://www.w3.org/2000/svg">
<g clip-path="url(#clip0_94_871)">
<path d="M1191.11 61.392C1330.14 84.3053 1288.89 788.61 1061.25 921.529C833.611 1054.45 271.389 1032.36 271.389 857.36C271.389 682.359 485.278 594.582 647.222 535C809.166 475.418 819.559 301.213 891.666 224.862C969.583 142.36 1052.08 38.4787 1191.11 61.392Z" fill="#D9D9D9"/>
<path fill-rule="evenodd" clip-rule="evenodd" d="M426.509 503.003L214.949 305.766L-115.473 660.55L-142.305 635.561L92.8148 383.105L6.21286 302.998L-121.568 440.534L-148.431 415.577L74.8989 175.199L-136.173 -21.5811L-136.868 -20.835L-163.693 -45.8316L212.14 -449.165L238.966 -424.168L37.7503 -208.23L139.745 -113.521L331.891 -320.678L345.332 -308.211L153.179 -101.046L248.939 -12.1263L512.609 -295.924L323.07 -472.129L348.035 -498.983L537.566 -322.786L652.125 -446.09L678.987 -421.133L564.421 -297.821L661.31 -207.748L854.398 -415.409L867.824 -402.925L674.738 -195.265L882.93 -1.7193L1208.24 -351.377L1235.09 -326.401L909.785 23.2461L956.091 66.2945C963.507 73.1885 963.93 84.7888 957.036 92.2045C950.141 99.6202 938.541 100.043 931.125 93.1492L884.809 50.091L788.833 153.249C788.39 154.705 787.834 156.52 787.169 158.664C785.275 164.765 782.492 173.536 778.916 184.288C771.769 205.777 761.428 235.256 748.655 267.19C723.516 330.038 687.606 405.96 646.436 447.13C605.77 487.796 559.312 500.06 516.537 511.351L516.406 511.385C514.847 511.797 513.293 512.207 511.745 512.617C467.307 524.392 425.755 536.422 386.714 575.463L171.297 790.88L145.37 764.953L360.787 549.536C382.216 528.107 404.41 513.591 426.509 503.003ZM857.954 25.1256L649.77 -168.413L558.989 -70.7807L767.001 122.885L857.954 25.1256ZM749.383 156.581L719.087 128.375L421.609 448.304L464.166 487.979L463.959 488.201C477.031 483.934 489.891 480.476 502.354 477.174L504.817 476.521C549.055 464.808 586.932 454.78 620.509 421.203C655.728 385.984 689.333 316.767 714.61 253.573C727.045 222.486 737.138 193.719 744.123 172.717C746.145 166.637 747.905 161.214 749.383 156.581ZM705.669 115.882L537.561 -40.6327L315.073 198.26L484.359 353.894L705.669 115.882ZM545.571 -83.2734L636.342 -180.896L539.464 -270.959L448.798 -173.372L545.571 -83.2734ZM423.841 -146.51L510.724 -65.6181L444.745 5.22614L358.587 -76.2747L423.841 -146.51ZM346.108 -62.843L432.25 18.6426L280.578 181.498L193.648 101.255L346.108 -62.843ZM181.169 114.687L268.083 194.914L213.119 253.931L126.675 173.34L181.169 114.687ZM101.718 200.203L188.129 280.763L117.805 356.273L31.1701 276.136L101.718 200.203ZM302.578 211.676L239.938 278.934L408.199 435.802L471.875 367.321L302.578 211.676ZM236.46 1.30478L99.8561 148.337L-46.4258 11.9593L90.0608 -134.637L236.46 1.30478ZM76.6263 -147.112L-59.8354 -0.542419L-111.176 -48.4067L25.252 -194.817L76.6263 -147.112Z" fill="white"/>
</g>
<defs>
<clipPath id="clip0_94_871">
<rect width="1100" height="1100" fill="white" transform="translate(-80 -400)"/>
</clipPath>
</defs>
</svg>
