<svg width="335" height="218" viewBox="0 0 335 218" fill="none" xmlns="http://www.w3.org/2000/svg">
<g clip-path="url(#clip0_108_904)">
<path d="M889.111 20.392C1028.14 43.3053 986.889 747.61 759.25 880.529C531.611 1013.45 -30.6111 991.361 -30.6111 816.36C-30.6111 641.359 183.278 553.582 345.222 494C507.167 434.418 517.56 260.213 589.667 183.862C667.583 101.36 750.083 -2.52127 889.111 20.392Z" fill="#D9D9D9"/>
<path fill-rule="evenodd" clip-rule="evenodd" d="M124.509 462.002L-87.0515 264.766L-417.473 619.55L-444.305 594.561L-209.185 342.105L-295.787 261.998L-423.569 399.534L-450.431 374.576L-227.101 134.199L-438.173 -62.5812L-438.868 -61.8351L-465.694 -86.8318L-89.8602 -490.165L-63.0346 -465.168L-264.25 -249.23L-162.256 -154.521L29.8904 -361.678L43.3319 -349.211L-148.821 -142.046L-53.0614 -53.1265L210.609 -336.924L21.0698 -513.129L46.0352 -539.983L235.566 -363.786L350.125 -487.09L376.987 -462.133L262.421 -338.821L359.31 -248.748L552.398 -456.409L565.824 -443.925L372.737 -236.265L580.93 -42.7194L906.245 -392.377L933.089 -367.401L607.785 -17.754L654.091 25.2944C661.507 32.1884 661.929 43.7887 655.035 51.2044C648.141 58.6201 636.541 59.043 629.125 52.149L582.809 9.09088L486.833 112.249C486.39 113.705 485.834 115.52 485.169 117.664C483.275 123.765 480.492 132.536 476.916 143.288C469.769 164.777 459.428 194.256 446.654 226.19C421.515 289.037 385.606 364.96 344.436 406.13C303.77 446.796 257.312 459.059 214.537 470.35L214.406 470.385C212.847 470.797 211.293 471.207 209.744 471.617C165.307 483.391 123.755 495.422 84.7139 534.463L-130.703 749.88L-156.63 723.953L58.7867 508.536C80.2161 487.107 102.41 472.591 124.509 462.002ZM555.954 -15.8745L347.769 -209.413L256.989 -111.781L465 81.8853L555.954 -15.8745ZM447.383 115.581L417.087 87.3745L119.609 407.304L162.165 446.979L161.959 447.2C175.03 442.934 187.891 439.476 200.353 436.174L202.817 435.521C247.055 423.808 284.932 413.78 318.509 380.203C353.728 344.984 387.332 275.767 412.61 212.573C425.045 181.486 435.138 152.719 442.123 131.716C444.145 125.636 445.905 120.214 447.383 115.581ZM403.669 74.8818L235.56 -81.6328L13.0724 157.26L182.359 312.894L403.669 74.8818ZM243.571 -124.273L334.342 -221.896L237.463 -311.959L146.798 -214.372L243.571 -124.273ZM121.841 -187.51L208.724 -106.618L142.745 -35.774L56.5869 -117.275L121.841 -187.51ZM44.1078 -103.843L130.25 -22.3575L-21.4226 140.498L-108.352 60.2552L44.1078 -103.843ZM-120.831 73.6865L-33.9175 153.914L-88.8812 212.931L-175.325 132.34L-120.831 73.6865ZM-200.282 159.202L-113.871 239.763L-184.196 315.273L-270.83 235.136L-200.282 159.202ZM0.577332 170.676L-62.0619 237.934L106.199 394.802L169.875 326.32L0.577332 170.676ZM-65.54 -39.6953L-202.144 107.337L-348.426 -29.0409L-211.939 -175.638L-65.54 -39.6953ZM-225.374 -188.113L-361.836 -41.5425L-413.176 -89.4069L-276.748 -235.817L-225.374 -188.113Z" fill="white"/>
</g>
<defs>
<clipPath id="clip0_108_904">
<rect width="1100" height="1100" fill="white" transform="translate(-382 -441)"/>
</clipPath>
</defs>
</svg>
